<svg
  width="178.67702"
  height="202.76706"
  viewBox="0 0 178.67702 202.76706"
  xmlns="http://www.w3.org/2000/svg"
>
  <g transform="translate(-119.62887 -271.84113)">
    <path
      fill="currentColor"
      d="m 235.16366,472.9338 c -4.75061,-2.05909 -14.93581,-11.83705 -35.36321,-33.94922 -19.99032,-21.63905 -24.66817,-27.56287 -24.66817,-31.23863 0,-4.01637 0.73592,-5.36852 3.72567,-6.84534 5.52765,-2.73044 7.52234,-1.17575 31.43964,24.50456 28.34895,30.43862 29.48785,31.33058 41.07307,32.16753 5.18433,0.37453 6.95998,0.18553 8.74337,-0.93066 1.23083,-0.77036 2.23402,-1.86529 2.22932,-2.43318 -0.0131,-1.57772 -4.78046,-6.9939 -22.35718,-25.39972 -18.58948,-19.46636 -36.44667,-38.63705 -41.45662,-44.50601 -2.95289,-3.4592 -3.5244,-4.78302 -3.81366,-8.83384 -0.55014,-7.70436 0.47975,-9.09375 36.91099,-49.79509 27.14383,-30.32535 28.082,-31.4322 28.082,-33.13106 0,-3.73913 -12.15,-3.66229 -16.83895,0.10649 -2.82033,2.26687 -32.93006,35.69853 -58.55099,65.01076 -30.84048,35.28378 -29.45799,33.121 -29.43046,46.04134 0.0235,11.04017 1.38352,14.50555 8.3524,21.28266 6.91212,6.72192 9.70013,12.92384 9.64689,21.45953 -0.0571,9.15671 -2.15955,14.80749 -7.35319,19.7633 -6.14951,5.86791 -10.59609,7.59083 -19.53341,7.5686 -8.84832,-0.022 -12.7668,-1.45283 -18.1679,-6.63396 -6.23062,-5.97685 -7.76462,-9.98551 -7.75951,-20.27716 0.005,-10.60129 0.90885,-12.63648 9.58423,-21.58704 3.18343,-3.2844 6.28874,-7.06087 6.9007,-8.39214 0.83194,-1.80981 1.18257,-12.60425 1.38976,-42.78442 0.32308,-47.06308 0.83238,-44.00889 -9.05373,-54.29458 -7.51436,-7.81806 -9.26585,-11.74077 -9.26585,-20.75221 0,-11.31797 5.49355,-20.29463 15.32891,-25.048 4.56898,-2.20817 5.53541,-2.36245 12.73801,-2.03351 6.95594,0.31767 8.27305,0.64963 12.25026,3.0875 8.79831,5.39301 14.25223,16.88755 13.0153,27.43074 -0.83361,7.1055 -2.90613,11.0701 -9.30291,17.79598 -7.53476,7.9224 -8.74604,10.72229 -8.76996,20.27187 -0.0148,5.91828 0.30434,8.03342 1.36509,9.04666 1.87609,1.79207 6.39306,1.66101 9.72938,-0.28231 1.50935,-0.87914 12.78171,-12.52268 25.0497,-25.87451 35.02138,-38.11544 44.53551,-47.90599 48.18399,-49.58392 4.16024,-1.91329 18.86371,-2.46659 37.56274,-1.41351 11.41231,0.64272 13.26946,0.94883 14.37106,2.3688 1.97257,2.54267 0.72227,6.00722 -4.5217,12.52942 -6.0142,7.48018 -34.00152,40.14631 -53.75104,62.73692 -19.00618,21.74033 -19.44817,22.3357 -18.32676,24.6867 0.48052,1.0074 4.20405,5.42712 8.2745,9.8216 4.07045,4.39449 14.97255,16.32132 24.22689,26.50408 9.25433,10.18275 24.42602,26.6561 33.71486,36.60743 9.28884,9.95133 17.11636,18.94815 17.3945,19.99294 0.78202,2.93757 -1.69366,5.77456 -5.57354,6.38693 -1.85106,0.29216 -14.66447,0.52706 -28.47424,0.52198 -23.12438,-0.008 -25.41227,-0.1408 -28.95025,-1.6743 z m -82.93755,-16.6712 c 9.13433,-6.31546 4.89956,-20.56757 -6.11128,-20.56757 -6.7723,0 -11.38153,5.77125 -10.36889,12.98295 1.18952,8.47131 9.59958,12.34185 16.48017,7.58462 z m -0.36999,-147.31591 c 3.02293,-1.76082 5.65603,-6.31101 5.65603,-9.77403 0,-3.24141 -2.41033,-7.65552 -5.0993,-9.33849 -2.91427,-1.82399 -9.21853,-1.78709 -12.18784,0.0713 -2.60807,1.63234 -4.73802,5.99412 -4.73802,9.70268 0,8.1505 9.30008,13.45614 16.36913,9.33849 z"
    />
  </g>
</svg>
